<svg id="visual" viewBox="0 0 200 297" width="200" height="297" xmlns="http://www.w3.org/2000/svg" xmlns:xlink="http://www.w3.org/1999/xlink" version="1.1"><path d="M0 37L5.5 37.5C11 38 22 39 33.2 41C44.3 43 55.7 46 66.8 47C78 48 89 47 100 44C111 41 122 36 133.2 35.5C144.3 35 155.7 39 166.8 42.3C178 45.7 189 48.3 194.5 49.7L200 51L200 0L194.5 0C189 0 178 0 166.8 0C155.7 0 144.3 0 133.2 0C122 0 111 0 100 0C89 0 78 0 66.8 0C55.7 0 44.3 0 33.2 0C22 0 11 0 5.5 0L0 0Z" fill="#d6f1ca"></path><path d="M0 141L5.5 133C11 125 22 109 33.2 108.5C44.3 108 55.7 123 66.8 127C78 131 89 124 100 112.5C111 101 122 85 133.2 85.5C144.3 86 155.7 103 166.8 116.8C178 130.7 189 141.3 194.5 146.7L200 152L200 49L194.5 47.7C189 46.3 178 43.7 166.8 40.3C155.7 37 144.3 33 133.2 33.5C122 34 111 39 100 42C89 45 78 46 66.8 45C55.7 44 44.3 41 33.2 39C22 37 11 36 5.5 35.5L0 35Z" fill="#cceebe"></path><path d="M0 200L5.5 200.5C11 201 22 202 33.2 197.5C44.3 193 55.7 183 66.8 186.5C78 190 89 207 100 209C111 211 122 198 133.2 191.5C144.3 185 155.7 185 166.8 191C178 197 189 209 194.5 215L200 221L200 150L194.5 144.7C189 139.3 178 128.7 166.8 114.8C155.7 101 144.3 84 133.2 83.5C122 83 111 99 100 110.5C89 122 78 129 66.8 125C55.7 121 44.3 106 33.2 106.5C22 107 11 123 5.5 131L0 139Z" fill="#c2ebb2"></path><path d="M0 233L5.5 237.3C11 241.7 22 250.3 33.2 249.8C44.3 249.3 55.7 239.7 66.8 242.2C78 244.7 89 259.3 100 262.3C111 265.3 122 256.7 133.2 247.8C144.3 239 155.7 230 166.8 228.5C178 227 189 233 194.5 236L200 239L200 219L194.5 213C189 207 178 195 166.8 189C155.7 183 144.3 183 133.2 189.5C122 196 111 209 100 207C89 205 78 188 66.8 184.5C55.7 181 44.3 191 33.2 195.5C22 200 11 199 5.5 198.5L0 198Z" fill="#bae9a7"></path><path d="M0 298L5.5 298C11 298 22 298 33.2 298C44.3 298 55.7 298 66.8 298C78 298 89 298 100 298C111 298 122 298 133.2 298C144.3 298 155.7 298 166.8 298C178 298 189 298 194.5 298L200 298L200 237L194.5 234C189 231 178 225 166.8 226.5C155.7 228 144.3 237 133.2 245.8C122 254.7 111 263.3 100 260.3C89 257.3 78 242.7 66.8 240.2C55.7 237.7 44.3 247.3 33.2 247.8C22 248.3 11 239.7 5.5 235.3L0 231Z" fill="#b1e69c"></path></svg>