<svg id="visual" viewBox="0 0 900 600" width="900" height="600" xmlns="http://www.w3.org/2000/svg" xmlns:xlink="http://www.w3.org/1999/xlink" version="1.1"><rect x="0" y="0" width="900" height="600" fill="#ffffff"></rect><path d="M0 265L37.5 255.3C75 245.7 150 226.3 225 240.3C300 254.3 375 301.7 450 329.7C525 357.7 600 366.3 675 355.2C750 344 825 313 862.5 297.5L900 282L900 0L862.5 0C825 0 750 0 675 0C600 0 525 0 450 0C375 0 300 0 225 0C150 0 75 0 37.5 0L0 0Z" fill="#DEEAB2" stroke-linecap="round" stroke-linejoin="miter"></path></svg>