<svg id="visual" viewBox="0 0 900 600" width="900" height="600" xmlns="http://www.w3.org/2000/svg" xmlns:xlink="http://www.w3.org/1999/xlink" version="1.1"><rect x="0" y="0" width="900" height="600" fill="#ffffff"></rect><path d="M0 396L37.5 400.5C75 405 150 414 225 379.7C300 345.3 375 267.7 450 226.5C525 185.3 600 180.7 675 218C750 255.3 825 334.7 862.5 374.3L900 414L900 0L862.5 0C825 0 750 0 675 0C600 0 525 0 450 0C375 0 300 0 225 0C150 0 75 0 37.5 0L0 0Z" fill="#DEEAB2" stroke-linecap="round" stroke-linejoin="miter"></path></svg>