<svg id="visual" viewBox="0 0 900 600" width="900" height="600" xmlns="http://www.w3.org/2000/svg" xmlns:xlink="http://www.w3.org/1999/xlink" version="1.1"><rect x="0" y="0" width="900" height="600" fill="#ffffff"></rect><path d="M0 333L37.5 342.7C75 352.3 150 371.7 225 357.7C300 343.7 375 296.3 450 268.3C525 240.3 600 231.7 675 242.8C750 254 825 285 862.5 300.5L900 316L900 601L862.5 601C825 601 750 601 675 601C600 601 525 601 450 601C375 601 300 601 225 601C150 601 75 601 37.5 601L0 601Z" fill="#DEEAB2" stroke-linecap="round" stroke-linejoin="miter"></path></svg>