<svg id="visual" viewBox="0 0 900 600" width="900" height="600" xmlns="http://www.w3.org/2000/svg" xmlns:xlink="http://www.w3.org/1999/xlink" version="1.1"><rect x="0" y="0" width="900" height="600" fill="#ffffff"></rect><path d="M0 392L37.5 392.8C75 393.7 150 395.3 225 370.5C300 345.7 375 294.3 450 257.2C525 220 600 197 675 210.5C750 224 825 274 862.5 299L900 324L900 0L862.5 0C825 0 750 0 675 0C600 0 525 0 450 0C375 0 300 0 225 0C150 0 75 0 37.5 0L0 0Z" fill="#DEEAB2" stroke-linecap="round" stroke-linejoin="miter"></path></svg>